<svg xmlns="http://www.w3.org/2000/svg" viewBox="0 0 78.27 81.63"><defs><style>.cls-1{fill:#fff;}</style></defs><title>before-after</title><g id="Layer_2" data-name="Layer 2"><g id="Layer_1-2" data-name="Layer 1"><path class="cls-1" d="M25.09,81.63H.48V76.56a19,19,0,0,1,.14-2.41,8.33,8.33,0,0,1,.56-2.05A4.72,4.72,0,0,1,2.3,70.44a5.06,5.06,0,0,1,1.84-1A8.36,8.36,0,0,1,6.84,69a4.68,4.68,0,0,1,3,.9,6.06,6.06,0,0,1,1.75,2.83q1.07-4.4,6.21-4.39,3.71,0,5.48,1.78t1.78,5.42ZM10.16,76.69v-.85a2.36,2.36,0,0,0-.26-1.15,1.67,1.67,0,0,0-.76-.7,3.82,3.82,0,0,0-1.07-.34,8.91,8.91,0,0,0-1.36-.1,5.74,5.74,0,0,0-1.08.09,6,6,0,0,0-.77.2,1.28,1.28,0,0,0-.52.37,2.31,2.31,0,0,0-.31.46,1.73,1.73,0,0,0-.15.6c0,.27,0,.49-.06.65s0,.42,0,.77Zm11.41,0v-.47a4.59,4.59,0,0,0-.22-1.57,1.73,1.73,0,0,0-.77-.91,3.57,3.57,0,0,0-1.24-.42,13,13,0,0,0-1.85-.1,5.6,5.6,0,0,0-3,.67,2.52,2.52,0,0,0-1.06,2.31v.49Z"/><path class="cls-1" d="M25.09,66.05H.48V55.78H3.9v5.29h6.7V57.33h3.5v3.74h7.57V55.78h3.42Z"/><path class="cls-1" d="M25.09,54H.48V43.74H3.9V49h6.7V45.28h3.5V49h11Z"/><path class="cls-1" d="M17,42.62H8.72Q0,42.62,0,35.42t8.72-7.2h8.15a15.48,15.48,0,0,1,2.73.22,9.2,9.2,0,0,1,2.37.74,6.49,6.49,0,0,1,1.91,1.34,5.9,5.9,0,0,1,1.24,2.06,9.16,9.16,0,0,1,0,5.67,5.7,5.7,0,0,1-1.2,2,6.25,6.25,0,0,1-1.86,1.34,9.22,9.22,0,0,1-2.35.75A15.17,15.17,0,0,1,17,42.62Zm1.13-9.42H7.48c-2.43,0-3.64.74-3.64,2.22a1.86,1.86,0,0,0,.34,1.14,1.9,1.9,0,0,0,.91.68,5.62,5.62,0,0,0,1.15.31,7.94,7.94,0,0,0,1.24.09H18.12c2.41,0,3.62-.74,3.62-2.22S20.53,33.2,18.12,33.2Z"/><path class="cls-1" d="M25.09,25.61H.48V20.19A13.07,13.07,0,0,1,.83,17a7.07,7.07,0,0,1,1.09-2.46,4.77,4.77,0,0,1,2-1.6,7.67,7.67,0,0,1,3-.54c.51,0,1,0,1.37.05a9.37,9.37,0,0,1,1.37.25,6.11,6.11,0,0,1,1.37.54,5.14,5.14,0,0,1,1.17,1,5.52,5.52,0,0,1,.95,1.52q7-2.22,11.9-3.86V17L13.75,19.81v.82H25.09Zm-14.37-5V19.21a1.44,1.44,0,0,0-.38-1,2.23,2.23,0,0,0-1-.59,8.31,8.31,0,0,0-1.08-.26,6.26,6.26,0,0,0-.93-.08,7.11,7.11,0,0,0-.91.07,6.85,6.85,0,0,0-1,.22,2,2,0,0,0-.93.51,1.23,1.23,0,0,0-.36.89v1.65Z"/><path class="cls-1" d="M25.09,10.27H.48V0H3.9V5.29h6.7V1.54h3.5V5.29h7.57V0h3.42Z"/><path class="cls-1" d="M53.66,9.81l24.61,5.32v4.4l-24.61,5.3v-4.9l5.26-1V15.7l-5.26-1ZM62,16v2.55l9.14-1.25Z"/><path class="cls-1" d="M53.66,26.42H78.27V36.69H74.85V31.4h-6.7v3.74h-3.5V31.4h-11Z"/><path class="cls-1" d="M53.66,40.46H74.55V36.85h3.72V49H74.55V45.44H53.66Z"/><path class="cls-1" d="M53.66,50.63H78.27V60.9H74.85V55.61h-6.7v3.75h-3.5V55.61H57.08V60.9H53.66Z"/><path class="cls-1" d="M53.66,62.68H78.27v5.41a13.71,13.71,0,0,1-.35,3.25,7.3,7.3,0,0,1-1.09,2.45,4.69,4.69,0,0,1-2,1.6,7.56,7.56,0,0,1-3,.55c-.51,0-1,0-1.37-.06a8.2,8.2,0,0,1-1.37-.25,5.29,5.29,0,0,1-1.37-.54,4.69,4.69,0,0,1-1.17-1,6,6,0,0,1-1-1.52q-7,2.22-11.89,3.86V71.29L65,68.47v-.82H53.66Zm14.37,5v1.43a1.4,1.4,0,0,0,.38,1,2.35,2.35,0,0,0,1,.6,9.27,9.27,0,0,0,1.08.26,7.86,7.86,0,0,0,.93.07,7,7,0,0,0,.9-.06,8.5,8.5,0,0,0,1-.22,2.23,2.23,0,0,0,.93-.52,1.21,1.21,0,0,0,.36-.88V67.65Z"/></g></g></svg>