<?xml version="1.0" encoding="utf-8"?>
<!-- Generator: Adobe Illustrator 21.1.0, SVG Export Plug-In . SVG Version: 6.00 Build 0)  -->
<svg version="1.1" id="Layer_1" xmlns="http://www.w3.org/2000/svg" xmlns:xlink="http://www.w3.org/1999/xlink" x="0px" y="0px"
	 viewBox="0 0 800 41.3" style="enable-background:new 0 0 800 41.3;" xml:space="preserve">
<style type="text/css">
	.st0{display:none;}
	.st1{display:inline;opacity:0.9;enable-background:new    ;}
	.st2{display:inline;fill:#87b957;}
	.st3{display:inline;fill:#00A1CB;}
	.st4{display:inline;}
	.st5{font-family:'Oswald-Regular';}
	.st6{font-size:6.9891px;}
	.st7{font-size:12px;}
	.st8{fill:#00A1CB;}
	.st9{opacity:0.9;fill:#231F20;}
	.st10{fill:#87b957;}
	.st11{fill:#00A0CA;}
	.st12{fill:#231F20;}
</style>
<g transform="translate(-3 0)" class="st0">
	<path class="st1" d="M122.4,8.3c-4.5,0-8.2,3.7-8.2,8.2v9.9c0,4.5,3.7,8.2,8.2,8.2s8.2-3.7,8.2-8.2v-9.9
		C130.8,12,127.1,8.3,122.4,8.3L122.4,8.3z M129.8,16.5v0.1c-2.1,1.1-4.5,1.7-6.9,1.8v-2.8c0.7-0.2,1.2-0.8,1.2-1.5V12
		c0-0.7-0.5-1.4-1.2-1.5V9.3C126.6,9.5,129.8,12.7,129.8,16.5L129.8,16.5z M122.4,11.2c0.5,0,0.9,0.4,0.9,0.9v2.1
		c0,0.5-0.4,0.9-0.9,0.9s-0.9-0.4-0.9-0.9v-2.1C121.6,11.6,122.1,11.2,122.4,11.2L122.4,11.2z M122.1,9.3v1.3
		c-0.7,0.2-1.2,0.8-1.2,1.5v2.1c0,0.7,0.5,1.4,1.2,1.5v2.8c-2.4-0.1-4.8-0.7-6.9-1.8v-0.1C115.3,12.7,118.4,9.5,122.1,9.3L122.1,9.3
		z M122.4,33.7c-4,0-7.2-3.3-7.2-7.2v-9.1c2.2,1.1,4.7,1.7,7.2,1.7s5-0.6,7.2-1.7v9.1C129.8,30.5,126.4,33.7,122.4,33.7L122.4,33.7z
		"/>
	<path class="st2" d="M129.8,16.5v0.1c-2.1,1.1-4.5,1.7-6.9,1.8v-2.8c0.7-0.2,1.2-0.8,1.2-1.5V12c0-0.7-0.5-1.4-1.2-1.5V9.3
		C126.6,9.5,129.8,12.7,129.8,16.5L129.8,16.5z"/>
	<path class="st3" d="M122.1,9.3v1.3c-0.7,0.2-1.2,0.8-1.2,1.5v2.1c0,0.7,0.5,1.4,1.2,1.5v2.8c-2.4-0.1-4.8-0.7-6.9-1.8v-0.1
		C115.3,12.7,118.4,9.5,122.1,9.3L122.1,9.3z"/>
	<text transform="matrix(1 0 0 1 139.72009 13.87415)" class="st4 st5 st6">Right-Click and HOLD to:</text>
	<text transform="matrix(1 0 0 1 139.71912 28.96301)" class="st2 st5 st7">ZOOM &amp; PAN IMAGE</text>
	<text transform="matrix(1 0 0 1 12.75 13.87415)" class="st4 st5 st6">Left-Click and DRAG Slider Bar to:</text>
	<g class="st4">
		<text transform="matrix(1 0 0 1 3.75 28.96301)" class="st8 st5 st7">COMPARE MATERIALS</text>
	</g>
</g>
<g>
	<path class="st9" d="M120.24559,9.30564c-4.53947,0-8.23244,3.69299-8.23244,8.2322v9.94342
		c0,4.53946,3.69298,8.23245,8.23244,8.23245c4.53922,0,8.23221-3.69299,8.23221-8.23245v-9.94342
		C128.4778,12.99862,124.78481,9.30564,120.24559,9.30564L120.24559,9.30564z M127.49094,17.53784v0.12977
		c-2.12536,1.11729-4.50188,1.72922-6.91664,1.78029v-2.75243c0.6964-0.15123,1.21976-0.77189,1.21976-1.51302v-2.06369
		c0-0.7408-0.52336-1.3617-1.21976-1.51302v-1.30553C124.41729,10.47268,127.49094,13.65299,127.49094,17.53784L127.49094,17.53784z
		 M120.24559,12.2283c0.49088,0,0.89056,0.3996,0.89056,0.89047v2.06369c0,0.49121-0.39967,0.8908-0.89056,0.8908
		c-0.49113,0-0.8908-0.3996-0.8908-0.8908v-2.06369C119.35479,12.6279,119.75446,12.2283,120.24559,12.2283L120.24559,12.2283z
		 M119.91639,10.30022v1.30586c-0.69614,0.15132-1.21918,0.77189-1.21918,1.51269v2.06369c0,0.7408,0.52303,1.36178,1.21918,1.51302
		v2.75243c-2.41451-0.05107-4.79103-0.663-6.91639-1.78029v-0.12952C113,13.65299,116.07332,10.47301,119.91639,10.30022
		L119.91639,10.30022z M120.24559,34.72684c-3.99529,0-7.24559-3.2503-7.24559-7.24559V18.4071
		c2.23779,1.11564,4.72705,1.70258,7.24535,1.70258c2.51854,0,5.0078-0.58693,7.24559-1.70258v9.07416
		C127.49094,31.47655,124.24064,34.72684,120.24559,34.72684L120.24559,34.72684z M120.24559,34.72684"/>
	<path class="st10" d="M127.49094,17.53784v0.12977c-2.12536,1.11729-4.50188,1.72922-6.91664,1.78029v-2.75243
		c0.6964-0.15123,1.21976-0.77189,1.21976-1.51302v-2.06369c0-0.7408-0.52336-1.3617-1.21976-1.51302v-1.30553
		C124.41729,10.47268,127.49094,13.65299,127.49094,17.53784L127.49094,17.53784z"/>
	<path class="st11" d="M119.91639,10.30022v1.30586c-0.69614,0.15132-1.21918,0.77189-1.21918,1.51269v2.06369
		c0,0.7408,0.52303,1.36178,1.21918,1.51302v2.75243c-2.41451-0.05107-4.79103-0.663-6.91639-1.78029v-0.12952
		C113,13.65299,116.07332,10.47301,119.91639,10.30022L119.91639,10.30022z"/>
	<g>
		<path class="st12" d="M137.90625,14.87402V8.75879h1.09277c0.65039,0,1.14063,0.12598,1.4707,0.37842
			c0.3291,0.25293,0.49414,0.67236,0.49414,1.25928c0,0.36426-0.06445,0.66895-0.19434,0.91455
			c-0.12988,0.24609-0.31934,0.41406-0.56934,0.50537l0.98242,3.05762h-0.86719l-0.87988-2.83936h-0.65527v2.83936H137.90625z
			 M138.78027,11.37939h0.21875c0.36328,0,0.63672-0.07666,0.81836-0.23047c0.18262-0.15332,0.27344-0.4043,0.27344-0.75244
			S140,9.79785,139.81738,9.64404c-0.18164-0.15332-0.45508-0.23047-0.81836-0.23047h-0.21875V11.37939z"/>
		<path class="st12" d="M141.6875,9.85059V8.97705h0.87402v0.87354H141.6875z M141.6875,14.87402v-4.36816h0.87402v4.36816H141.6875
			z"/>
		<path class="st12" d="M144.7793,16.18115c-0.10938,0-0.19824-0.00049-0.26563-0.00195
			c-0.06836-0.00098-0.16211-0.00391-0.28027-0.0083c-0.11816-0.00488-0.2168-0.01318-0.29688-0.02588
			c-0.08008-0.01221-0.1709-0.02832-0.27344-0.04736c-0.10156-0.01953-0.18652-0.04492-0.25391-0.07715
			c-0.06738-0.03174-0.13086-0.06934-0.19238-0.1123c-0.06152-0.04346-0.10742-0.09619-0.13867-0.15869
			c-0.03027-0.06299-0.0459-0.13281-0.0459-0.20996c0-0.22754,0.06055-0.42188,0.18262-0.5835s0.2793-0.29004,0.47266-0.38574
			c-0.11816-0.03174-0.2207-0.08008-0.30762-0.14502c-0.08594-0.06494-0.12891-0.14404-0.12891-0.2373
			c0-0.03857,0.00391-0.07959,0.01367-0.12256c0.00879-0.04346,0.01855-0.08252,0.03027-0.11816
			c0.01172-0.03516,0.0293-0.0752,0.05469-0.12109c0.02539-0.04541,0.04492-0.08105,0.05957-0.10742
			c0.01465-0.02588,0.03906-0.0625,0.07324-0.10889c0.03418-0.04688,0.05762-0.07861,0.07031-0.0957
			s0.03711-0.04785,0.07324-0.09229s0.05664-0.06982,0.06152-0.07666c-0.29102-0.3457-0.43652-0.78271-0.43652-1.31055
			c0-0.30273,0.04785-0.57227,0.14258-0.80859c0.0957-0.23682,0.24414-0.42627,0.44531-0.56836
			c0.20215-0.14209,0.44238-0.21338,0.72168-0.21338c0.16211,0,0.30273,0.02295,0.42383,0.06836
			c0.12012,0.04541,0.21875,0.10303,0.29492,0.17236s0.15039,0.16113,0.22363,0.2749c0.17285-0.3208,0.41895-0.4917,0.7373-0.51221
			c0.00684,0,0.01367,0,0.02051,0s0.01563,0,0.02539,0s0.01758,0,0.02246,0v0.71338c-0.01172,0-0.03027,0-0.05469,0
			c-0.09766,0-0.17188,0.00098-0.22168,0.00342c-0.05078,0.00244-0.10645,0.01172-0.16797,0.02881
			c-0.06055,0.01709-0.11035,0.04395-0.14648,0.08057c0.04102,0.08838,0.07715,0.20605,0.10742,0.35303
			c0.03125,0.14648,0.0459,0.28271,0.0459,0.40771c0,0.30518-0.0459,0.57471-0.1377,0.80908
			c-0.0918,0.23389-0.23926,0.42188-0.44043,0.56299s-0.44531,0.21143-0.73242,0.21143l-0.43945-0.05127
			c-0.00488,0.01172-0.0166,0.03125-0.03418,0.05957c-0.01855,0.02881-0.03223,0.05225-0.04297,0.07031
			c-0.00977,0.01807-0.01953,0.0415-0.0293,0.06982c-0.00879,0.02832-0.01367,0.05518-0.01367,0.08008
			c0,0.05957,0.02832,0.10938,0.08594,0.15039c0.05664,0.04102,0.13477,0.0708,0.23535,0.09033
			c0.09961,0.01953,0.19629,0.03369,0.28809,0.04248c0.09277,0.00928,0.19531,0.0166,0.30859,0.02246
			c0.11426,0.00537,0.19238,0.01172,0.23633,0.01855c0.12891,0.01855,0.24512,0.03955,0.3457,0.06348
			c0.10156,0.02344,0.20508,0.05859,0.31055,0.104c0.10645,0.04541,0.19336,0.1001,0.26172,0.16357
			c0.06738,0.06396,0.12402,0.14551,0.16895,0.24561c0.04395,0.1001,0.06641,0.21533,0.06641,0.34473
			c0,0.15918-0.02832,0.30176-0.08398,0.42676s-0.12988,0.22852-0.22363,0.31055c-0.09277,0.08203-0.20605,0.14941-0.33789,0.20313
			c-0.13184,0.05322-0.27051,0.09131-0.41602,0.11426C145.10156,16.16943,144.94531,16.18115,144.7793,16.18115z M144.7793,15.53613
			c0.06152,0,0.11719-0.00146,0.16602-0.00342c0.04883-0.00244,0.10449-0.00684,0.16895-0.01367
			c0.06348-0.00684,0.11816-0.01758,0.16504-0.03223c0.04688-0.01514,0.09082-0.03369,0.13281-0.05664
			c0.04199-0.02246,0.0752-0.05273,0.09766-0.09033s0.03418-0.08008,0.03418-0.12793c0-0.24365-0.2334-0.39258-0.69922-0.44727
			l-0.7207-0.08496c-0.08887,0.06348-0.16406,0.15576-0.22656,0.27637s-0.09375,0.24658-0.09375,0.37891
			c0,0.03613,0.01172,0.06738,0.03711,0.09375c0.02539,0.02588,0.0625,0.0459,0.11133,0.05957s0.09863,0.0249,0.14941,0.03418
			c0.05176,0.00879,0.1123,0.01465,0.18262,0.01709c0.07129,0.00195,0.13086,0.00342,0.18164,0.00342
			c0.0498,0,0.1084-0.00146,0.17578-0.00342C144.70801,15.53711,144.75391,15.53613,144.7793,15.53613z M144.56055,12.96289
			c0.36426,0,0.54688-0.30908,0.54688-0.92822c0-0.125-0.00879-0.24072-0.02441-0.34619
			c-0.01563-0.10596-0.04297-0.20947-0.08203-0.31055c-0.03809-0.10156-0.0957-0.18115-0.16992-0.23926
			c-0.0752-0.05762-0.16504-0.08691-0.27051-0.08691c-0.10645,0-0.19727,0.0293-0.27246,0.08691
			c-0.0752,0.05811-0.13184,0.1377-0.16895,0.23926c-0.03711,0.10107-0.06445,0.20459-0.08008,0.31055
			c-0.01563,0.10547-0.02441,0.22119-0.02441,0.34619C144.01465,12.65381,144.19727,12.96289,144.56055,12.96289z"/>
		<path class="st12" d="M146.55469,14.87402V8.75879h0.87305v2.21777c0.12988-0.11816,0.23633-0.2085,0.31738-0.271
			c0.08203-0.0625,0.19531-0.12158,0.33984-0.17773c0.14453-0.05566,0.29883-0.0835,0.46289-0.0835
			c0.18652,0,0.33789,0.06836,0.45313,0.20508c0.11621,0.13623,0.1748,0.30371,0.1748,0.50146v3.72314h-0.87402v-3.27637
			c0-0.1499-0.01855-0.26025-0.05664-0.33057c-0.03711-0.0708-0.11816-0.10596-0.24316-0.10596
			c-0.17773,0-0.36914,0.08545-0.57422,0.25586v3.45703H146.55469z"/>
		<path class="st12" d="M151.15039,14.93555c-0.34277,0-0.59277-0.08789-0.74902-0.2627
			c-0.15527-0.17529-0.23535-0.44043-0.24023-0.79541v-2.71631h-0.43652v-0.65527h0.43652V8.97705h0.87402v1.52881h0.65527v0.65527
			h-0.65527v2.54932c0,0.17529,0.02344,0.30371,0.07129,0.38525c0.04785,0.08203,0.14453,0.12305,0.29004,0.12305
			c0.06348,0,0.16113-0.01123,0.29395-0.03418v0.70996C151.47168,14.92188,151.29199,14.93555,151.15039,14.93555z"/>
		<path class="st12" d="M151.92871,13.34521v-0.65527h1.31055v0.65527H151.92871z"/>
		<path class="st12" d="M155.24609,14.93555c-0.25781,0-0.4834-0.03662-0.67969-0.10938
			c-0.19531-0.07275-0.35547-0.17334-0.48047-0.30176c-0.12598-0.12891-0.22754-0.28906-0.30566-0.48145
			s-0.13379-0.39746-0.16602-0.61572c-0.03125-0.21875-0.04785-0.46533-0.04785-0.74072v-1.74365
			c0-0.27539,0.0166-0.52246,0.04785-0.74072c0.03223-0.21826,0.08789-0.42383,0.16602-0.61621
			c0.07813-0.19189,0.17969-0.35205,0.30566-0.47949c0.125-0.12695,0.28516-0.22705,0.48047-0.30029
			c0.19629-0.07275,0.42188-0.10889,0.67969-0.10889c0.28418,0,0.53027,0.04199,0.7373,0.12598
			c0.20703,0.08447,0.37207,0.2085,0.49609,0.37207c0.12402,0.16406,0.21777,0.354,0.28027,0.56982
			c0.0625,0.21631,0.09961,0.46875,0.11035,0.75781c0.00195,0.04346,0.00391,0.11035,0.00391,0.20117H156v-0.19434
			c-0.00195-0.12061-0.00684-0.22363-0.01367-0.30908c-0.00684-0.08496-0.01953-0.17334-0.03711-0.26416
			c-0.01855-0.09131-0.04492-0.16699-0.08008-0.22705c-0.03613-0.06006-0.08008-0.11621-0.13379-0.16699
			c-0.05371-0.05127-0.12109-0.08887-0.20313-0.11279s-0.17676-0.03613-0.28613-0.03613c-0.1416,0-0.2627,0.02295-0.36328,0.06836
			c-0.10156,0.0459-0.18066,0.104-0.2373,0.17578c-0.05762,0.07178-0.10059,0.16797-0.13184,0.28857
			c-0.03027,0.12061-0.05078,0.23828-0.05957,0.35303s-0.01367,0.25684-0.01367,0.4248v2.18408
			c0,0.146,0.00586,0.27783,0.01855,0.396s0.03711,0.23584,0.07324,0.35303c0.03711,0.11719,0.08398,0.21582,0.1416,0.29541
			c0.05859,0.07959,0.13574,0.14404,0.23242,0.19287s0.20996,0.07324,0.33984,0.07324s0.24121-0.0249,0.33398-0.0752
			c0.09375-0.0498,0.16699-0.11377,0.2207-0.19092c0.05273-0.07715,0.09473-0.17627,0.12598-0.29688
			c0.03027-0.12061,0.05078-0.23779,0.05957-0.35156S156,13.05859,156,12.9082v-0.21826h0.87402v0.21826
			c0,0.31641-0.02832,0.59375-0.08398,0.83301c-0.05566,0.23877-0.14551,0.44971-0.26953,0.63281s-0.29199,0.32275-0.50488,0.41797
			C155.80273,14.8877,155.5459,14.93555,155.24609,14.93555z"/>
		<path class="st12" d="M157.41992,14.87402V8.75879h0.87402v6.11523H157.41992z"/>
		<path class="st12" d="M159.1084,9.85059V8.97705h0.87402v0.87354H159.1084z M159.1084,14.87402v-4.36816h0.87402v4.36816H159.1084
			z"/>
		<path class="st12" d="M161.91113,14.93555c-0.21191,0-0.39551-0.03516-0.55078-0.10596
			c-0.15625-0.07031-0.28027-0.1626-0.37402-0.27637c-0.09277-0.11377-0.16797-0.25879-0.22559-0.43506
			c-0.05664-0.17627-0.0957-0.35254-0.11719-0.52881s-0.03516-0.38184-0.03906-0.61621c-0.00684-0.18896-0.00684-0.37891,0-0.56982
			c0.00391-0.23193,0.01758-0.43701,0.03906-0.61426c0.02148-0.17773,0.06152-0.35449,0.11914-0.53076
			c0.05859-0.17627,0.13281-0.3208,0.22559-0.43359c0.0918-0.1123,0.21582-0.2041,0.37207-0.27441
			c0.15527-0.0708,0.33887-0.10596,0.55078-0.10596c0.45996,0,0.78906,0.12402,0.99023,0.37207
			c0.2002,0.24805,0.30664,0.61523,0.32031,1.10205v0.11621h-0.87402v-0.12305c-0.00195-0.10889-0.00977-0.20459-0.02148-0.28662
			c-0.0127-0.08154-0.0332-0.16357-0.06152-0.24561s-0.07324-0.14502-0.13281-0.18945
			c-0.06055-0.04443-0.13379-0.06641-0.2207-0.06641c-0.08594,0-0.15918,0.02539-0.21875,0.07666
			c-0.05859,0.05127-0.10352,0.12451-0.13477,0.22021c-0.03027,0.0957-0.05273,0.19385-0.06641,0.29541
			c-0.01367,0.10107-0.02148,0.21777-0.02344,0.34961c-0.00977,0.28223-0.00977,0.70752,0,1.27637
			c0.00391,0.125,0.01367,0.23486,0.02734,0.3291c0.01367,0.09473,0.03516,0.18555,0.06641,0.27295
			c0.03027,0.08789,0.0752,0.15527,0.13477,0.20313s0.13086,0.07178,0.21484,0.07178c0.07715,0,0.14355-0.01465,0.2002-0.04443
			c0.05566-0.0293,0.09766-0.06592,0.12793-0.10889c0.0293-0.04346,0.05273-0.10156,0.06934-0.17432
			c0.01758-0.07275,0.02832-0.14014,0.03223-0.20313c0.00488-0.0625,0.00684-0.1416,0.00684-0.23682v-0.10596h0.87402v0.11279
			c-0.00684,0.22949-0.03516,0.43262-0.08496,0.60889c-0.05078,0.17627-0.12598,0.33057-0.22754,0.4624
			c-0.10059,0.13184-0.23535,0.23291-0.40234,0.30225S162.14063,14.93555,161.91113,14.93555z"/>
		<path class="st12" d="M163.76367,14.87402V8.75879h0.87305v3.36133l1.09277-1.61426h0.87305l-0.97949,1.52539l0.97949,2.84277
			h-0.87305l-0.65527-2.1123l-0.4375,0.5835v1.52881H163.76367z"/>
		<path class="st12" d="M169.22363,14.93555c-0.24316,0-0.4502-0.10547-0.61914-0.31592
			c-0.16992-0.21045-0.25391-0.44727-0.25391-0.71143c0-0.21143,0.03516-0.40381,0.10742-0.57666
			c0.07129-0.17285,0.14648-0.31104,0.22656-0.41455s0.21289-0.21045,0.39941-0.3208s0.32715-0.18604,0.42285-0.22705
			s0.26172-0.10791,0.49805-0.20117c0.04102-0.01611,0.07227-0.02881,0.09277-0.0376v-0.31396
			c0-0.2207-0.03125-0.39209-0.09277-0.51367s-0.17578-0.18262-0.34473-0.18262c-0.14941,0-0.25684,0.05176-0.32227,0.15527
			c-0.06445,0.10352-0.10156,0.24609-0.11035,0.42822c-0.00293,0.0249-0.00391,0.0625-0.00391,0.11279h-0.87305
			c0.00391-0.41846,0.12109-0.75195,0.35059-1c0.23047-0.24805,0.5498-0.37207,0.95898-0.37207
			c0.40723,0,0.72754,0.12598,0.96094,0.37695c0.2334,0.25146,0.34961,0.5835,0.34961,0.99512v1.96533
			c0,0.45508,0.03809,0.81934,0.11328,1.09229h-0.87012l-0.11621-0.65527c-0.0459,0.09131-0.08301,0.16162-0.11133,0.21143
			c-0.02832,0.05029-0.06934,0.1123-0.12402,0.18604c-0.05469,0.07422-0.10938,0.13086-0.16406,0.1709
			c-0.05469,0.03955-0.12305,0.07422-0.20508,0.104C169.41113,14.92041,169.32129,14.93555,169.22363,14.93555z M169.66016,14.21875
			c0.06152,0,0.12109-0.01807,0.17969-0.05469c0.05762-0.03613,0.10156-0.07129,0.13086-0.10547
			c0.03027-0.03418,0.06641-0.07959,0.10938-0.13672c0.00684-0.01123,0.0127-0.01904,0.01758-0.02393v-1.20801
			c-0.03711,0.0249-0.09668,0.06348-0.18066,0.11621c-0.08496,0.05225-0.15137,0.09473-0.20215,0.12793
			c-0.0498,0.03271-0.11035,0.07813-0.18066,0.13623s-0.125,0.11377-0.16406,0.16748
			c-0.03809,0.05322-0.07227,0.11865-0.10156,0.19629c-0.03027,0.07715-0.04492,0.1582-0.04492,0.24219
			C169.22363,14.03809,169.36914,14.21875,169.66016,14.21875z"/>
		<path class="st12" d="M171.72266,14.87402v-4.36816h0.87305v0.4707c0.12988-0.11816,0.23633-0.2085,0.31738-0.271
			c0.08203-0.0625,0.19531-0.12158,0.33984-0.17773c0.14453-0.05566,0.29883-0.0835,0.46289-0.0835
			c0.18652,0,0.33789,0.06836,0.45313,0.20508c0.11621,0.13623,0.1748,0.30371,0.1748,0.50146v3.72314h-0.87402v-3.27637
			c0-0.15234-0.02148-0.26318-0.06445-0.33252c-0.04395-0.06934-0.13086-0.104-0.2627-0.104
			c-0.0752,0-0.15039,0.01514-0.22363,0.0459c-0.07422,0.03076-0.12988,0.05908-0.16602,0.08545s-0.08887,0.06787-0.15723,0.12451
			v3.45703H171.72266z"/>
		<path class="st12" d="M176.12793,14.93555c-0.19336,0-0.3623-0.05469-0.50684-0.16406
			c-0.14453-0.10889-0.25586-0.25684-0.33496-0.44336c-0.07813-0.18652-0.13672-0.38086-0.17578-0.58203
			c-0.03809-0.20117-0.0625-0.41797-0.07129-0.6499c-0.00488-0.10693-0.00488-0.36865,0-0.78516
			c0.00488-0.1499,0.01172-0.28613,0.02051-0.40771s0.02441-0.24854,0.0459-0.38037s0.04883-0.24854,0.08203-0.3501
			c0.0332-0.10107,0.07715-0.19873,0.13184-0.29346c0.05371-0.09424,0.11816-0.17236,0.19043-0.2334
			c0.07324-0.06152,0.16016-0.11035,0.2627-0.14697c0.10254-0.03613,0.2168-0.05469,0.3418-0.05469
			c0.09766,0,0.18945,0.01318,0.27441,0.03955c0.08496,0.02588,0.16699,0.06689,0.24414,0.12256s0.13965,0.10547,0.18555,0.14844
			c0.04688,0.04346,0.10742,0.10498,0.18262,0.18457V8.76221h0.87402v6.11182h-0.87402v-0.396
			c-0.13184,0.13672-0.26563,0.24707-0.40234,0.33105C176.46191,14.89355,176.30469,14.93555,176.12793,14.93555z
			 M176.3457,14.21875c0.21191,0,0.43066-0.04541,0.65527-0.13623v-2.74756c-0.19531-0.11572-0.41406-0.17383-0.65527-0.17383
			c-0.08594,0-0.15918,0.021-0.21777,0.06299c-0.05957,0.04199-0.10352,0.10352-0.13379,0.18457
			c-0.0293,0.08057-0.05078,0.16357-0.06445,0.24902s-0.02148,0.18604-0.02344,0.30176c-0.00977,0.50977-0.00977,0.91357,0,1.21143
			c0.00195,0.146,0.00977,0.27539,0.02344,0.38916s0.03613,0.22363,0.06641,0.32959
			c0.03125,0.10547,0.07617,0.18701,0.13477,0.24365C176.19043,14.19043,176.26172,14.21875,176.3457,14.21875z"/>
		<path class="st12" d="M180.14746,14.87402V8.75879h0.87402v2.62061h1.52832V8.75879h0.87402v6.11523h-0.87402v-2.83936h-1.52832
			v2.83936H180.14746z"/>
		<path class="st12" d="M185.875,14.93555c-0.30762,0-0.57031-0.04688-0.79004-0.14014s-0.39453-0.22949-0.52441-0.40918
			c-0.12891-0.17969-0.22363-0.39111-0.2832-0.6333c-0.05859-0.24219-0.08887-0.52393-0.08887-0.84473v-2.21826
			c0-0.3208,0.03027-0.60059,0.08887-0.83936c0.05957-0.23877,0.1543-0.44629,0.2832-0.62256
			c0.12988-0.17627,0.30469-0.30908,0.52441-0.39795c0.21973-0.08838,0.48242-0.13281,0.79004-0.13281
			c0.5957,0,1.02539,0.17041,1.29004,0.51172c0.26367,0.34131,0.39551,0.83496,0.39551,1.48096v2.21826
			c0,0.31641-0.03027,0.5957-0.09082,0.83789c-0.05957,0.24219-0.15527,0.4541-0.28418,0.63477
			c-0.12988,0.18115-0.30469,0.31836-0.52441,0.41309C186.44141,14.88818,186.17969,14.93555,185.875,14.93555z M185.23828,13.94238
			c0.11719,0.18408,0.3291,0.27637,0.63672,0.27637c0.30664,0,0.51855-0.09229,0.63672-0.27637
			c0.11621-0.18408,0.1748-0.45605,0.1748-0.81543v-2.65527c0-0.35498-0.05762-0.62012-0.17383-0.79492
			c-0.11621-0.17529-0.32813-0.26318-0.6377-0.26318s-0.52246,0.08789-0.63867,0.26318
			c-0.11621,0.1748-0.17383,0.43994-0.17383,0.79492v2.65527C185.0625,13.48633,185.12109,13.7583,185.23828,13.94238z"/>
		<path class="st12" d="M188.32422,14.87402V8.75879h0.87402v5.45996h1.52832v0.65527H188.32422z"/>
		<path class="st12" d="M191.13281,14.87402V8.75879h1.35547c0.63867,0,1.08984,0.13086,1.35254,0.39209
			c0.2627,0.26172,0.39453,0.71338,0.39453,1.35498v2.40234c0,0.67139-0.13379,1.1665-0.40137,1.48633
			s-0.71777,0.47949-1.35254,0.47949H191.13281z M192.00684,14.21875h0.48145c0.14258,0,0.26563-0.01318,0.36816-0.03906
			c0.10254-0.02637,0.18555-0.07422,0.24902-0.14355s0.11426-0.13525,0.15039-0.19775s0.06152-0.15967,0.07715-0.29199
			c0.01465-0.13184,0.02246-0.24023,0.02539-0.32568c0.00195-0.08545,0.00293-0.21777,0.00293-0.39746c0-0.05957,0-0.10352,0-0.1333
			v-1.96582c0-0.11133,0-0.2002-0.00195-0.26611c-0.00098-0.06592-0.00391-0.14355-0.00977-0.23389
			c-0.00586-0.08984-0.01465-0.16064-0.02539-0.21289c-0.01172-0.05273-0.02734-0.11133-0.04785-0.17578
			c-0.02051-0.06494-0.0459-0.11572-0.07715-0.15186c-0.03027-0.03662-0.06836-0.07471-0.1123-0.11475
			c-0.04492-0.03955-0.0957-0.06934-0.15332-0.08838c-0.05859-0.01953-0.12598-0.03516-0.20313-0.04785
			s-0.16406-0.01904-0.25977-0.01904h-0.46387V14.21875z"/>
		<path class="st12" d="M197.59277,14.93555c-0.34277,0-0.59277-0.08789-0.74902-0.2627
			c-0.15527-0.17529-0.23535-0.44043-0.24023-0.79541v-2.71631h-0.43652v-0.65527h0.43652V8.97705h0.87402v1.52881h0.65527v0.65527
			h-0.65527v2.54932c0,0.17529,0.02344,0.30371,0.07129,0.38525c0.04785,0.08203,0.14453,0.12305,0.29004,0.12305
			c0.06348,0,0.16113-0.01123,0.29395-0.03418v0.70996C197.91406,14.92188,197.73438,14.93555,197.59277,14.93555z"/>
		<path class="st12" d="M201.00586,14.52588c-0.20313,0.27295-0.53809,0.40967-1.00684,0.40967s-0.80469-0.13672-1.00684-0.40967
			s-0.30371-0.6665-0.30371-1.18066v-1.31055c0-0.51416,0.10156-0.90771,0.30371-1.18066s0.53809-0.40967,1.00684-0.40967
			s0.80371,0.13672,1.00684,0.40967c0.20215,0.27295,0.30371,0.6665,0.30371,1.18066v1.31055
			C201.30957,13.85938,201.20801,14.25293,201.00586,14.52588z M199.83691,14.19141
			c0.04688,0.01855,0.10059,0.02734,0.16211,0.02734s0.11523-0.00879,0.16211-0.02734
			c0.04688-0.01807,0.08496-0.04004,0.11621-0.06641c0.03027-0.02637,0.05566-0.06494,0.07617-0.11621
			s0.03711-0.09619,0.04785-0.13477c0.01172-0.03857,0.01953-0.09424,0.02441-0.16699
			c0.00391-0.07275,0.00684-0.13037,0.00781-0.17236c0.00195-0.04199,0.00195-0.10547,0.00195-0.18945v-1.31055
			c0-0.08398,0-0.14746-0.00195-0.18945c-0.00098-0.04199-0.00391-0.09961-0.00781-0.17236
			c-0.00488-0.07275-0.0127-0.12842-0.02441-0.16699c-0.01074-0.03857-0.02734-0.0835-0.04785-0.13477
			s-0.0459-0.08984-0.07617-0.11621c-0.03125-0.02588-0.06934-0.04834-0.11621-0.06641s-0.10059-0.02734-0.16211-0.02734
			s-0.11523,0.00928-0.16211,0.02734s-0.08496,0.04053-0.11621,0.06641c-0.03027,0.02637-0.05664,0.06494-0.07715,0.11621
			s-0.03613,0.09619-0.04688,0.13477c-0.01172,0.03857-0.01953,0.09424-0.02441,0.16699s-0.00781,0.13037-0.00879,0.17236
			s-0.00098,0.10547-0.00098,0.18945v1.31055c0,0.08398,0,0.14746,0.00098,0.18945s0.00391,0.09961,0.00879,0.17236
			s0.0127,0.12842,0.02441,0.16699c0.01074,0.03857,0.02637,0.0835,0.04688,0.13477s0.04688,0.08984,0.07715,0.11621
			C199.75195,14.15137,199.79004,14.17334,199.83691,14.19141z"/>
		<path class="st12" d="M202.06348,12.03467v-0.87354h0.87402v0.87354H202.06348z M202.06348,14.00049v-0.87354h0.87402v0.87354
			H202.06348z"/>
	</g>
	<g>
		<path class="st10" d="M137.83203,29.96289v-1.125l3.375-8.25h-3v-1.125h4.5v1.125l-3.375,8.25h3.375v1.125H137.83203z"/>
		<path class="st10" d="M146.49805,30.06836c-0.52734,0-0.97949-0.08008-1.35645-0.24023s-0.67676-0.39453-0.89941-0.70313
			s-0.38477-0.6709-0.48633-1.08691s-0.15234-0.89941-0.15234-1.4502V22.7793c0-0.55078,0.05078-1.03125,0.15234-1.44141
			s0.26367-0.7666,0.48633-1.06934s0.52246-0.53027,0.89941-0.68262s0.8291-0.22852,1.35645-0.22852
			c1.02344,0,1.76172,0.29297,2.21484,0.87891s0.67969,1.43359,0.67969,2.54297v3.80859c0,0.54297-0.05176,1.02246-0.15527,1.43848
			s-0.2666,0.7793-0.48926,1.08984s-0.52246,0.54688-0.89941,0.70898S147.02148,30.06836,146.49805,30.06836z M145.40527,28.36328
			c0.20117,0.31641,0.56543,0.47461,1.09277,0.47461s0.8916-0.1582,1.09277-0.47461s0.30176-0.7832,0.30176-1.40039V22.4043
			c0-0.60938-0.09961-1.06445-0.29883-1.36523s-0.56445-0.45117-1.0957-0.45117s-0.89648,0.15039-1.0957,0.45117
			s-0.29883,0.75586-0.29883,1.36523v4.55859C145.10352,27.58008,145.2041,28.04688,145.40527,28.36328z"/>
		<path class="st10" d="M153.41211,30.06836c-0.52734,0-0.97949-0.08008-1.35645-0.24023s-0.67676-0.39453-0.89941-0.70313
			s-0.38477-0.6709-0.48633-1.08691s-0.15234-0.89941-0.15234-1.4502V22.7793c0-0.55078,0.05078-1.03125,0.15234-1.44141
			s0.26367-0.7666,0.48633-1.06934s0.52246-0.53027,0.89941-0.68262s0.8291-0.22852,1.35645-0.22852
			c1.02344,0,1.76172,0.29297,2.21484,0.87891s0.67969,1.43359,0.67969,2.54297v3.80859c0,0.54297-0.05176,1.02246-0.15527,1.43848
			s-0.2666,0.7793-0.48926,1.08984s-0.52246,0.54688-0.89941,0.70898S153.93555,30.06836,153.41211,30.06836z M152.31934,28.36328
			c0.20117,0.31641,0.56543,0.47461,1.09277,0.47461s0.8916-0.1582,1.09277-0.47461s0.30176-0.7832,0.30176-1.40039V22.4043
			c0-0.60938-0.09961-1.06445-0.29883-1.36523s-0.56445-0.45117-1.0957-0.45117s-0.89648,0.15039-1.0957,0.45117
			s-0.29883,0.75586-0.29883,1.36523v4.55859C152.01758,27.58008,152.11816,28.04688,152.31934,28.36328z"/>
		<path class="st10" d="M157.61914,29.96289v-10.5h2.07422l1.48828,8.03906l1.48828-8.03906h2.07422v10.5h-1.5v-8.28516
			l-1.5,8.28516h-1.125l-1.5-8.28516v8.28516H157.61914z"/>
		<path class="st10" d="M170.93164,30.06836c-0.69531,0-1.24414-0.21484-1.64648-0.64453s-0.60352-1-0.60352-1.71094
			c0-1.11719,0.5-2.11719,1.5-3c-0.05469-0.11328-0.16797-0.32715-0.33984-0.6416s-0.30273-0.56641-0.39258-0.75586
			s-0.17773-0.43555-0.26367-0.73828s-0.12891-0.59082-0.12891-0.86426c0-0.70313,0.20313-1.27148,0.60938-1.70508
			s0.95313-0.65039,1.64063-0.65039c0.64453,0,1.18066,0.17871,1.6084,0.53613s0.6416,0.83887,0.6416,1.44434
			c0,0.27344-0.04297,0.55078-0.12891,0.83203s-0.18848,0.53125-0.30762,0.75s-0.27246,0.4502-0.45996,0.69434
			s-0.35059,0.44141-0.48926,0.5918s-0.30176,0.31934-0.48926,0.50684l1.5,2.25c0.07031-0.15625,0.13086-0.35156,0.18164-0.58594
			s0.08496-0.41699,0.10254-0.54785s0.04785-0.37793,0.09082-0.74121h1.5c0,0.47656-0.0918,0.9707-0.27539,1.48242
			s-0.40234,0.95898-0.65625,1.3418c0.29297,0.36719,0.60352,0.55078,0.93164,0.55078v1.60547
			c-0.09766,0-0.19043-0.00488-0.27832-0.01465s-0.17676-0.03125-0.2666-0.06445s-0.16602-0.06055-0.22852-0.08203
			s-0.1377-0.0625-0.22559-0.12305s-0.15137-0.10156-0.19043-0.12305s-0.10352-0.07324-0.19336-0.15527
			s-0.14453-0.13086-0.16406-0.14648s-0.07813-0.07129-0.17578-0.16699s-0.14844-0.14551-0.15234-0.14941
			c-0.24609,0.3125-0.55957,0.56152-0.94043,0.74707S171.42383,30.06836,170.93164,30.06836z M170.93164,28.83789
			c0.47656,0,0.91406-0.25,1.3125-0.75l-0.7207-1.07227c-0.05078-0.08203-0.1377-0.20215-0.26074-0.36035
			s-0.22949-0.30469-0.31934-0.43945s-0.1543-0.26074-0.19336-0.37793c-0.17188,0.22656-0.30957,0.50586-0.41309,0.83789
			s-0.15527,0.67773-0.15527,1.03711c0,0.32813,0.05859,0.59766,0.17578,0.80859S170.66602,28.83789,170.93164,28.83789z
			 M171.125,23.96289c0.25-0.3125,0.46777-0.71387,0.65332-1.2041s0.27832-0.96387,0.27832-1.4209
			c0-0.22656-0.06836-0.4082-0.20508-0.54492s-0.31836-0.20508-0.54492-0.20508c-0.25391,0-0.44238,0.11035-0.56543,0.33105
			s-0.18457,0.48535-0.18457,0.79395c0,0.25391,0.0332,0.5293,0.09961,0.82617s0.13281,0.54004,0.19922,0.72949
			S171.01172,23.68945,171.125,23.96289z"/>
		<path class="st10" d="M178.99414,29.96289v-10.5h2.625c1.75,0,2.625,1,2.625,3c0,0.85547-0.22559,1.50684-0.67676,1.9541
			s-1.10059,0.6709-1.94824,0.6709h-1.125v4.875H178.99414z M180.49414,23.96289h0.375c0.33984,0,0.61816-0.01953,0.83496-0.05859
			s0.4082-0.1123,0.57422-0.21973s0.28516-0.26074,0.35742-0.45996s0.1084-0.45313,0.1084-0.76172
			c0-0.375-0.02734-0.67871-0.08203-0.91113s-0.15527-0.42285-0.30176-0.57129s-0.33594-0.25098-0.56836-0.30762
			s-0.54004-0.08496-0.92285-0.08496h-0.375V23.96289z"/>
		<path class="st10" d="M184.4375,29.96289l2.25-10.5h1.5l2.25,10.5h-1.5l-0.5625-2.625H186.5l-0.5625,2.625H184.4375z
			 M186.6875,26.21289h1.5l-0.75-4.5L186.6875,26.21289z"/>
		<path class="st10" d="M191.28125,29.96289v-10.5h1.125l2.625,6.49219v-6.49219h1.5v10.5h-1.06641l-2.68359-6.98438v6.98438
			H191.28125z"/>
		<path class="st10" d="M200.53906,29.96289v-10.5h1.5v10.5H200.53906z"/>
		<path class="st10" d="M203.64453,29.96289v-10.5h2.07422l1.48828,8.03906l1.48828-8.03906h2.07422v10.5h-1.5v-8.28516
			l-1.5,8.28516h-1.125l-1.5-8.28516v8.28516H203.64453z"/>
		<path class="st10" d="M211.61328,29.96289l2.25-10.5h1.5l2.25,10.5h-1.5l-0.5625-2.625h-1.875l-0.5625,2.625H211.61328z
			 M213.86328,26.21289h1.5l-0.75-4.5L213.86328,26.21289z"/>
		<path class="st10" d="M221.26953,30.06836c-0.48047,0-0.89746-0.06836-1.25098-0.20508s-0.6416-0.32227-0.86426-0.55664
			s-0.40039-0.5332-0.5332-0.89648s-0.22461-0.74609-0.27539-1.14844s-0.07617-0.86523-0.07617-1.38867v-2.66016
			c0-2.57031,1.01953-3.85547,3.05859-3.85547c0.48828,0,0.91211,0.07324,1.27148,0.21973s0.65039,0.36035,0.87305,0.6416
			s0.39063,0.61035,0.50391,0.9873s0.17969,0.81348,0.19922,1.30957c0.00391,0.07031,0.00586,0.17773,0.00586,0.32227h-1.5v-0.31641
			c-0.00391-0.24609-0.0166-0.45801-0.03809-0.63574s-0.06055-0.35254-0.11719-0.52441s-0.13379-0.31152-0.23145-0.41895
			s-0.22754-0.19336-0.38965-0.25781s-0.35449-0.09668-0.57715-0.09668c-0.30469,0-0.56152,0.05566-0.77051,0.16699
			s-0.36914,0.27344-0.48047,0.48633s-0.19043,0.44727-0.2373,0.70313s-0.07031,0.55371-0.07031,0.89355v3.375
			c0,0.25,0.00781,0.47559,0.02344,0.67676s0.04199,0.40625,0.0791,0.61523s0.0918,0.38965,0.16406,0.54199
			s0.16211,0.29004,0.26953,0.41309s0.24219,0.2168,0.4043,0.28125s0.34863,0.09668,0.55957,0.09668
			c0.25,0,0.4668-0.04883,0.65039-0.14648s0.3291-0.22363,0.43652-0.37793s0.19238-0.35059,0.25488-0.58887
			s0.10449-0.47461,0.12598-0.70898s0.03223-0.50195,0.03223-0.80273v-0.375h-1.5v-1.11328h3v5.23828h-1.125l-0.375-1.125
			C222.47656,29.6582,221.97656,30.06836,221.26953,30.06836z"/>
		<path class="st10" d="M225.48242,29.96289v-10.5h4.125v1.125h-2.625v3.375h1.875v1.125h-1.875v3.75h2.625v1.125H225.48242z"/>
	</g>
	<g>
		<path class="st12" d="M11.00439,14.87402V8.75879h0.87402v5.45996h1.52832v0.65527H11.00439z"/>
		<path class="st12" d="M15.01123,14.93555c-0.21191,0-0.39551-0.03662-0.55078-0.10938
			c-0.15625-0.07275-0.28027-0.16748-0.37207-0.28467c-0.09277-0.11719-0.16699-0.26758-0.22363-0.45068
			c-0.05762-0.18311-0.09668-0.36621-0.11816-0.54932s-0.03418-0.39648-0.03906-0.64014c-0.00684-0.19092-0.00684-0.38184,0-0.57324
			c0.00684-0.22754,0.02246-0.4292,0.0459-0.60547c0.02441-0.17627,0.06543-0.34766,0.125-0.51367
			c0.05859-0.16602,0.13574-0.30273,0.23047-0.40967c0.09375-0.10693,0.21777-0.19287,0.37109-0.25781
			c0.1543-0.06445,0.33301-0.09717,0.53809-0.09717c0.18652,0,0.35059,0.02441,0.49316,0.07324
			c0.1416,0.04932,0.26074,0.12305,0.35449,0.22217c0.09473,0.09863,0.17285,0.2085,0.23535,0.3291s0.11035,0.26709,0.1416,0.43848
			c0.03223,0.17188,0.05469,0.34082,0.06738,0.50684c0.01172,0.16602,0.01855,0.35742,0.01855,0.57324v0.10254h-1.74707v0.21826
			c0,0.02979,0,0.07617,0,0.14014c-0.00488,0.08398-0.00586,0.17139-0.00195,0.26123
			c0.00293,0.08984,0.00684,0.17773,0.01172,0.26416s0.01758,0.16895,0.03711,0.24756
			c0.02051,0.07861,0.0459,0.14746,0.0752,0.20654c0.03027,0.05908,0.07129,0.10547,0.125,0.13965s0.11621,0.05127,0.18945,0.05127
			c0.09082,0,0.16602-0.01758,0.22559-0.05273c0.05859-0.03516,0.10254-0.08838,0.13086-0.15869
			c0.02832-0.0708,0.04883-0.14111,0.05957-0.21191c0.01172-0.07031,0.01855-0.15918,0.02051-0.26611v-0.18408h0.86719v0.17383
			c-0.02051,0.4668-0.13574,0.81934-0.34473,1.05811C15.76709,14.81592,15.4458,14.93555,15.01123,14.93555z M14.58154,12.25293
			h0.86621v-0.2627c-0.00195-0.11572-0.00879-0.21729-0.02051-0.30371c-0.01074-0.08643-0.03125-0.17285-0.05957-0.25928
			s-0.07227-0.15234-0.13086-0.19775c-0.05957-0.04541-0.13281-0.06836-0.21875-0.06836c-0.08887,0-0.16309,0.02393-0.22363,0.07178
			s-0.10449,0.11621-0.13281,0.20654c-0.02832,0.08984-0.04883,0.17773-0.05957,0.26416
			c-0.01172,0.08643-0.01855,0.18994-0.02051,0.31055V12.25293z"/>
		<path class="st12" d="M17.18799,14.87402v-3.71289h-0.43652v-0.65527h0.43652v-0.16699c0-0.18457,0.00684-0.34082,0.02051-0.46924
			c0.01367-0.12891,0.04102-0.25293,0.08398-0.37207c0.04199-0.11963,0.09863-0.21533,0.16992-0.28662
			c0.07227-0.07178,0.16797-0.12891,0.28711-0.1709s0.26172-0.06299,0.42773-0.06299c0.1416,0,0.32129,0.01367,0.54004,0.04102
			V9.6665c-0.02344-0.00244-0.07031-0.00879-0.14063-0.01904s-0.12109-0.01514-0.15332-0.01514
			c-0.14551,0-0.24219,0.0459-0.29004,0.13818s-0.07129,0.22803-0.07129,0.40771v0.32764h0.65527v0.65527h-0.65527v3.71289H17.18799
			z"/>
		<path class="st12" d="M20.33447,14.93555c-0.34277,0-0.59277-0.08789-0.74902-0.2627
			c-0.15527-0.17529-0.23535-0.44043-0.24023-0.79541v-2.71631h-0.43652v-0.65527h0.43652V8.97705h0.87402v1.52881h0.65527v0.65527
			h-0.65527v2.54932c0,0.17529,0.02344,0.30371,0.07129,0.38525c0.04785,0.08203,0.14453,0.12305,0.29004,0.12305
			c0.06348,0,0.16113-0.01123,0.29395-0.03418v0.70996C20.65576,14.92188,20.47607,14.93555,20.33447,14.93555z"/>
		<path class="st12" d="M21.11279,13.34521v-0.65527h1.31055v0.65527H21.11279z"/>
		<path class="st12" d="M24.43018,14.93555c-0.25781,0-0.4834-0.03662-0.67969-0.10938
			c-0.19531-0.07275-0.35547-0.17334-0.48047-0.30176c-0.12598-0.12891-0.22754-0.28906-0.30566-0.48145
			s-0.13379-0.39746-0.16602-0.61572c-0.03125-0.21875-0.04785-0.46533-0.04785-0.74072v-1.74365
			c0-0.27539,0.0166-0.52246,0.04785-0.74072c0.03223-0.21826,0.08789-0.42383,0.16602-0.61621
			c0.07813-0.19189,0.17969-0.35205,0.30566-0.47949c0.125-0.12695,0.28516-0.22705,0.48047-0.30029
			c0.19629-0.07275,0.42188-0.10889,0.67969-0.10889c0.28418,0,0.53027,0.04199,0.7373,0.12598
			c0.20703,0.08447,0.37207,0.2085,0.49609,0.37207c0.12402,0.16406,0.21777,0.354,0.28027,0.56982
			c0.0625,0.21631,0.09961,0.46875,0.11035,0.75781c0.00195,0.04346,0.00391,0.11035,0.00391,0.20117h-0.87402v-0.19434
			c-0.00195-0.12061-0.00684-0.22363-0.01367-0.30908c-0.00684-0.08496-0.01953-0.17334-0.03711-0.26416
			c-0.01855-0.09131-0.04492-0.16699-0.08008-0.22705c-0.03613-0.06006-0.08008-0.11621-0.13379-0.16699
			c-0.05371-0.05127-0.12109-0.08887-0.20313-0.11279s-0.17676-0.03613-0.28613-0.03613c-0.1416,0-0.2627,0.02295-0.36328,0.06836
			c-0.10156,0.0459-0.18066,0.104-0.2373,0.17578c-0.05762,0.07178-0.10059,0.16797-0.13184,0.28857
			c-0.03027,0.12061-0.05078,0.23828-0.05957,0.35303s-0.01367,0.25684-0.01367,0.4248v2.18408
			c0,0.146,0.00586,0.27783,0.01855,0.396s0.03711,0.23584,0.07324,0.35303c0.03711,0.11719,0.08398,0.21582,0.1416,0.29541
			c0.05859,0.07959,0.13574,0.14404,0.23242,0.19287s0.20996,0.07324,0.33984,0.07324s0.24121-0.0249,0.33398-0.0752
			c0.09375-0.0498,0.16699-0.11377,0.2207-0.19092c0.05273-0.07715,0.09473-0.17627,0.12598-0.29688
			c0.03027-0.12061,0.05078-0.23779,0.05957-0.35156s0.01367-0.24561,0.01367-0.396v-0.21826h0.87402v0.21826
			c0,0.31641-0.02832,0.59375-0.08398,0.83301c-0.05566,0.23877-0.14551,0.44971-0.26953,0.63281s-0.29199,0.32275-0.50488,0.41797
			C24.98682,14.8877,24.72998,14.93555,24.43018,14.93555z"/>
		<path class="st12" d="M26.60303,14.87402V8.75879h0.87402v6.11523H26.60303z"/>
		<path class="st12" d="M28.29248,9.85059V8.97705h0.87402v0.87354H28.29248z M28.29248,14.87402v-4.36816h0.87402v4.36816H28.29248
			z"/>
		<path class="st12" d="M31.09424,14.93555c-0.21191,0-0.39551-0.03516-0.55078-0.10596
			c-0.15625-0.07031-0.28027-0.1626-0.37402-0.27637c-0.09277-0.11377-0.16797-0.25879-0.22559-0.43506
			c-0.05664-0.17627-0.0957-0.35254-0.11719-0.52881s-0.03516-0.38184-0.03906-0.61621c-0.00684-0.18896-0.00684-0.37891,0-0.56982
			c0.00391-0.23193,0.01758-0.43701,0.03906-0.61426c0.02148-0.17773,0.06152-0.35449,0.11914-0.53076
			c0.05859-0.17627,0.13281-0.3208,0.22559-0.43359c0.0918-0.1123,0.21582-0.2041,0.37207-0.27441
			c0.15527-0.0708,0.33887-0.10596,0.55078-0.10596c0.45996,0,0.78906,0.12402,0.99023,0.37207
			c0.2002,0.24805,0.30664,0.61523,0.32031,1.10205v0.11621h-0.87402v-0.12305c-0.00195-0.10889-0.00977-0.20459-0.02148-0.28662
			c-0.0127-0.08154-0.0332-0.16357-0.06152-0.24561s-0.07324-0.14502-0.13281-0.18945
			c-0.06055-0.04443-0.13379-0.06641-0.2207-0.06641c-0.08594,0-0.15918,0.02539-0.21875,0.07666
			c-0.05859,0.05127-0.10352,0.12451-0.13477,0.22021c-0.03027,0.0957-0.05273,0.19385-0.06641,0.29541
			c-0.01367,0.10107-0.02148,0.21777-0.02344,0.34961c-0.00977,0.28223-0.00977,0.70752,0,1.27637
			c0.00391,0.125,0.01367,0.23486,0.02734,0.3291c0.01367,0.09473,0.03516,0.18555,0.06641,0.27295
			c0.03027,0.08789,0.0752,0.15527,0.13477,0.20313s0.13086,0.07178,0.21484,0.07178c0.07715,0,0.14355-0.01465,0.2002-0.04443
			c0.05566-0.0293,0.09766-0.06592,0.12793-0.10889c0.0293-0.04346,0.05273-0.10156,0.06934-0.17432
			c0.01758-0.07275,0.02832-0.14014,0.03223-0.20313c0.00488-0.0625,0.00684-0.1416,0.00684-0.23682v-0.10596h0.87402v0.11279
			c-0.00684,0.22949-0.03516,0.43262-0.08496,0.60889c-0.05078,0.17627-0.12598,0.33057-0.22754,0.4624
			c-0.10059,0.13184-0.23535,0.23291-0.40234,0.30225S31.32373,14.93555,31.09424,14.93555z"/>
		<path class="st12" d="M32.94775,14.87402V8.75879h0.87305v3.36133l1.09277-1.61426h0.87305l-0.97949,1.52539l0.97949,2.84277
			h-0.87305l-0.65527-2.1123l-0.4375,0.5835v1.52881H32.94775z"/>
		<path class="st12" d="M38.40771,14.93555c-0.24316,0-0.4502-0.10547-0.61914-0.31592
			c-0.16992-0.21045-0.25391-0.44727-0.25391-0.71143c0-0.21143,0.03516-0.40381,0.10742-0.57666
			c0.07129-0.17285,0.14648-0.31104,0.22656-0.41455s0.21289-0.21045,0.39941-0.3208s0.32715-0.18604,0.42285-0.22705
			s0.26172-0.10791,0.49805-0.20117c0.04102-0.01611,0.07227-0.02881,0.09277-0.0376v-0.31396
			c0-0.2207-0.03125-0.39209-0.09277-0.51367s-0.17578-0.18262-0.34473-0.18262c-0.14941,0-0.25684,0.05176-0.32227,0.15527
			c-0.06445,0.10352-0.10156,0.24609-0.11035,0.42822c-0.00293,0.0249-0.00391,0.0625-0.00391,0.11279h-0.87305
			c0.00391-0.41846,0.12109-0.75195,0.35059-1c0.23047-0.24805,0.5498-0.37207,0.95898-0.37207
			c0.40723,0,0.72754,0.12598,0.96094,0.37695c0.2334,0.25146,0.34961,0.5835,0.34961,0.99512v1.96533
			c0,0.45508,0.03809,0.81934,0.11328,1.09229h-0.87012l-0.11621-0.65527c-0.0459,0.09131-0.08301,0.16162-0.11133,0.21143
			c-0.02832,0.05029-0.06934,0.1123-0.12402,0.18604c-0.05469,0.07422-0.10938,0.13086-0.16406,0.1709
			c-0.05469,0.03955-0.12305,0.07422-0.20508,0.104C38.59521,14.92041,38.50537,14.93555,38.40771,14.93555z M38.84424,14.21875
			c0.06152,0,0.12109-0.01807,0.17969-0.05469c0.05762-0.03613,0.10156-0.07129,0.13086-0.10547
			c0.03027-0.03418,0.06641-0.07959,0.10938-0.13672c0.00684-0.01123,0.0127-0.01904,0.01758-0.02393v-1.20801
			c-0.03711,0.0249-0.09668,0.06348-0.18066,0.11621c-0.08496,0.05225-0.15137,0.09473-0.20215,0.12793
			c-0.0498,0.03271-0.11035,0.07813-0.18066,0.13623s-0.125,0.11377-0.16406,0.16748
			c-0.03809,0.05322-0.07227,0.11865-0.10156,0.19629c-0.03027,0.07715-0.04492,0.1582-0.04492,0.24219
			C38.40771,14.03809,38.55322,14.21875,38.84424,14.21875z"/>
		<path class="st12" d="M40.90576,14.87402v-4.36816h0.87305v0.4707c0.12988-0.11816,0.23633-0.2085,0.31738-0.271
			c0.08203-0.0625,0.19531-0.12158,0.33984-0.17773c0.14453-0.05566,0.29883-0.0835,0.46289-0.0835
			c0.18652,0,0.33789,0.06836,0.45313,0.20508c0.11621,0.13623,0.1748,0.30371,0.1748,0.50146v3.72314h-0.87402v-3.27637
			c0-0.15234-0.02148-0.26318-0.06445-0.33252c-0.04395-0.06934-0.13086-0.104-0.2627-0.104
			c-0.0752,0-0.15039,0.01514-0.22363,0.0459c-0.07422,0.03076-0.12988,0.05908-0.16602,0.08545s-0.08887,0.06787-0.15723,0.12451
			v3.45703H40.90576z"/>
		<path class="st12" d="M45.31201,14.93555c-0.19336,0-0.3623-0.05469-0.50684-0.16406
			c-0.14453-0.10889-0.25586-0.25684-0.33496-0.44336c-0.07813-0.18652-0.13672-0.38086-0.17578-0.58203
			c-0.03809-0.20117-0.0625-0.41797-0.07129-0.6499c-0.00488-0.10693-0.00488-0.36865,0-0.78516
			c0.00488-0.1499,0.01172-0.28613,0.02051-0.40771s0.02441-0.24854,0.0459-0.38037s0.04883-0.24854,0.08203-0.3501
			c0.0332-0.10107,0.07715-0.19873,0.13184-0.29346c0.05371-0.09424,0.11816-0.17236,0.19043-0.2334
			c0.07324-0.06152,0.16016-0.11035,0.2627-0.14697c0.10254-0.03613,0.2168-0.05469,0.3418-0.05469
			c0.09766,0,0.18945,0.01318,0.27441,0.03955c0.08496,0.02588,0.16699,0.06689,0.24414,0.12256s0.13965,0.10547,0.18555,0.14844
			c0.04688,0.04346,0.10742,0.10498,0.18262,0.18457V8.76221h0.87402v6.11182h-0.87402v-0.396
			c-0.13184,0.13672-0.26563,0.24707-0.40234,0.33105C45.646,14.89355,45.48877,14.93555,45.31201,14.93555z M45.52979,14.21875
			c0.21191,0,0.43066-0.04541,0.65527-0.13623v-2.74756c-0.19531-0.11572-0.41406-0.17383-0.65527-0.17383
			c-0.08594,0-0.15918,0.021-0.21777,0.06299c-0.05957,0.04199-0.10352,0.10352-0.13379,0.18457
			c-0.0293,0.08057-0.05078,0.16357-0.06445,0.24902s-0.02148,0.18604-0.02344,0.30176c-0.00977,0.50977-0.00977,0.91357,0,1.21143
			c0.00195,0.146,0.00977,0.27539,0.02344,0.38916s0.03613,0.22363,0.06641,0.32959
			c0.03125,0.10547,0.07617,0.18701,0.13477,0.24365C45.37451,14.19043,45.4458,14.21875,45.52979,14.21875z"/>
		<path class="st12" d="M49.33154,14.87402V8.75879h1.35547c0.63867,0,1.08984,0.13086,1.35254,0.39209
			c0.2627,0.26172,0.39453,0.71338,0.39453,1.35498v2.40234c0,0.67139-0.13379,1.1665-0.40137,1.48633
			s-0.71777,0.47949-1.35254,0.47949H49.33154z M50.20557,14.21875h0.48145c0.14258,0,0.26563-0.01318,0.36816-0.03906
			c0.10254-0.02637,0.18555-0.07422,0.24902-0.14355s0.11426-0.13525,0.15039-0.19775s0.06152-0.15967,0.07715-0.29199
			c0.01465-0.13184,0.02246-0.24023,0.02539-0.32568c0.00195-0.08545,0.00293-0.21777,0.00293-0.39746c0-0.05957,0-0.10352,0-0.1333
			v-1.96582c0-0.11133,0-0.2002-0.00195-0.26611c-0.00098-0.06592-0.00391-0.14355-0.00977-0.23389
			c-0.00586-0.08984-0.01465-0.16064-0.02539-0.21289C51.51123,9.9585,51.49561,9.8999,51.4751,9.83545
			c-0.02051-0.06494-0.0459-0.11572-0.07715-0.15186c-0.03027-0.03662-0.06836-0.07471-0.1123-0.11475
			c-0.04492-0.03955-0.0957-0.06934-0.15332-0.08838c-0.05859-0.01953-0.12598-0.03516-0.20313-0.04785
			s-0.16406-0.01904-0.25977-0.01904h-0.46387V14.21875z"/>
		<path class="st12" d="M53.19775,14.87402V8.75879h1.09277c0.65039,0,1.14063,0.12598,1.4707,0.37842
			c0.3291,0.25293,0.49414,0.67236,0.49414,1.25928c0,0.36426-0.06445,0.66895-0.19434,0.91455
			c-0.12988,0.24609-0.31934,0.41406-0.56934,0.50537l0.98242,3.05762h-0.86719l-0.87988-2.83936h-0.65527v2.83936H53.19775z
			 M54.07178,11.37939h0.21875c0.36328,0,0.63672-0.07666,0.81836-0.23047c0.18262-0.15332,0.27344-0.4043,0.27344-0.75244
			s-0.09082-0.59863-0.27344-0.75244c-0.18164-0.15332-0.45508-0.23047-0.81836-0.23047h-0.21875V11.37939z"/>
		<path class="st12" d="M56.59717,14.87402l1.31055-6.11523h0.87305l1.31055,6.11523h-0.87305l-0.32813-1.52881h-1.0918
			l-0.32715,1.52881H56.59717z M57.90771,12.68994h0.87305l-0.43652-2.62109L57.90771,12.68994z"/>
		<path class="st12" d="M62.22217,14.93555c-0.28027,0-0.52344-0.04004-0.72852-0.11963
			c-0.20605-0.07959-0.37402-0.1875-0.50391-0.32422c-0.12988-0.13623-0.2334-0.31055-0.31055-0.52197
			s-0.13086-0.43457-0.16016-0.66895s-0.04492-0.50391-0.04492-0.80859v-1.54932c0-1.49707,0.59473-2.24561,1.78223-2.24561
			c0.28418,0,0.53125,0.04248,0.74023,0.12793s0.37891,0.20996,0.50879,0.37354c0.12891,0.16406,0.22754,0.35547,0.29297,0.5752
			c0.06641,0.21973,0.10449,0.47363,0.11621,0.7627c0.00195,0.04102,0.00293,0.10352,0.00293,0.1875h-0.87305v-0.18408
			c-0.00195-0.14355-0.00977-0.2666-0.02246-0.37012s-0.03516-0.20557-0.06836-0.30566s-0.07813-0.18115-0.13477-0.24414
			c-0.05664-0.0625-0.13281-0.1123-0.22656-0.1499c-0.09473-0.0376-0.20703-0.05664-0.33594-0.05664
			c-0.17773,0-0.32715,0.03271-0.44922,0.09766c-0.12207,0.06445-0.21484,0.15918-0.2793,0.2832
			c-0.06543,0.12402-0.11133,0.26025-0.13867,0.40918c-0.02734,0.14941-0.04102,0.32275-0.04102,0.52051v1.96582
			c0,0.14551,0.00488,0.27686,0.01367,0.39404s0.02441,0.23682,0.0459,0.3584s0.05371,0.22705,0.0957,0.31592
			c0.04199,0.08838,0.09473,0.16895,0.15723,0.24023c0.0625,0.07178,0.14063,0.12646,0.23535,0.16406
			s0.20313,0.05615,0.32617,0.05615c0.14551,0,0.27148-0.02832,0.37891-0.08545c0.10645-0.05664,0.19141-0.12988,0.25391-0.21973
			s0.1123-0.20459,0.14844-0.34326s0.06055-0.27637,0.07324-0.41309c0.0127-0.13623,0.01855-0.29199,0.01855-0.46729v-0.21826
			h-0.87305v-0.64844h1.74707v3.05078h-0.65527l-0.21875-0.65527C62.92529,14.69678,62.6333,14.93555,62.22217,14.93555z"/>
		<path class="st12" d="M67.68799,14.93555c-0.55078,0-0.9707-0.16162-1.26074-0.48486
			c-0.29004-0.32275-0.45215-0.76416-0.48633-1.32373l0.87402-0.21875c0.04297,0.87354,0.33398,1.31055,0.87305,1.31055
			c0.4375,0,0.65527-0.21826,0.65527-0.65527c0-0.12939-0.01758-0.24951-0.05273-0.35986s-0.08887-0.21143-0.16211-0.30371
			s-0.13867-0.16602-0.19824-0.22168c-0.05859-0.05615-0.13965-0.125-0.24219-0.20654l-1.0918-0.87402
			c-0.2002-0.15674-0.36035-0.35645-0.47949-0.59863s-0.17871-0.51807-0.17871-0.82764c0-0.4502,0.13965-0.80859,0.41895-1.07471
			c0.28027-0.2666,0.65137-0.39941,1.11328-0.39941c0.49512,0,0.88965,0.12109,1.18164,0.36328
			c0.29297,0.24219,0.47266,0.58545,0.54102,1.02881c0.00684,0.04785,0.01465,0.11377,0.02441,0.19824l-0.87402,0.21826
			c-0.00195-0.03857-0.00781-0.09668-0.0166-0.17383c-0.03906-0.27783-0.12598-0.5-0.26172-0.66748
			c-0.13477-0.16699-0.33398-0.25098-0.59473-0.25098c-0.20996,0-0.37109,0.05908-0.48535,0.17578
			c-0.11328,0.11719-0.16992,0.28076-0.16992,0.48975c0,0.34375,0.14551,0.63135,0.43652,0.86377l1.0918,0.87354
			c0.58301,0.4707,0.87402,1.03369,0.87402,1.68896c0,0.44824-0.13867,0.79883-0.41504,1.05127S68.15479,14.93555,67.68799,14.93555
			z"/>
		<path class="st12" d="M69.8208,14.87402V8.75879h0.87402v6.11523H69.8208z"/>
		<path class="st12" d="M71.51025,9.85059V8.97705h0.87402v0.87354H71.51025z M71.51025,14.87402v-4.36816h0.87402v4.36816H71.51025
			z"/>
		<path class="st12" d="M74.24072,14.93555c-0.19336,0-0.3623-0.05469-0.50684-0.16406
			c-0.14453-0.10889-0.25586-0.25684-0.33496-0.44336c-0.07813-0.18652-0.13672-0.38086-0.17578-0.58203
			c-0.03809-0.20117-0.0625-0.41797-0.07129-0.6499c-0.00488-0.10693-0.00488-0.36865,0-0.78516
			c0.00488-0.1499,0.01172-0.28613,0.02051-0.40771s0.02441-0.24854,0.0459-0.38037s0.04883-0.24854,0.08203-0.3501
			c0.0332-0.10107,0.07715-0.19873,0.13184-0.29346c0.05371-0.09424,0.11816-0.17236,0.19043-0.2334
			c0.07324-0.06152,0.16016-0.11035,0.2627-0.14697c0.10254-0.03613,0.2168-0.05469,0.3418-0.05469
			c0.09766,0,0.18945,0.01318,0.27441,0.03955c0.08496,0.02588,0.16699,0.06689,0.24414,0.12256s0.13965,0.10547,0.18555,0.14844
			c0.04688,0.04346,0.10742,0.10498,0.18262,0.18457V8.76221h0.87402v6.11182h-0.87402v-0.396
			c-0.13184,0.13672-0.26563,0.24707-0.40234,0.33105C74.57471,14.89355,74.41748,14.93555,74.24072,14.93555z M74.4585,14.21875
			c0.21191,0,0.43066-0.04541,0.65527-0.13623v-2.74756c-0.19531-0.11572-0.41406-0.17383-0.65527-0.17383
			c-0.08594,0-0.15918,0.021-0.21777,0.06299c-0.05957,0.04199-0.10352,0.10352-0.13379,0.18457
			c-0.0293,0.08057-0.05078,0.16357-0.06445,0.24902s-0.02148,0.18604-0.02344,0.30176c-0.00977,0.50977-0.00977,0.91357,0,1.21143
			c0.00195,0.146,0.00977,0.27539,0.02344,0.38916s0.03613,0.22363,0.06641,0.32959
			c0.03125,0.10547,0.07617,0.18701,0.13477,0.24365C74.30322,14.19043,74.37451,14.21875,74.4585,14.21875z"/>
		<path class="st12" d="M78.03857,14.93555c-0.21191,0-0.39551-0.03662-0.55078-0.10938
			c-0.15625-0.07275-0.28027-0.16748-0.37207-0.28467c-0.09277-0.11719-0.16699-0.26758-0.22363-0.45068
			c-0.05762-0.18311-0.09668-0.36621-0.11816-0.54932s-0.03418-0.39648-0.03906-0.64014c-0.00684-0.19092-0.00684-0.38184,0-0.57324
			c0.00684-0.22754,0.02246-0.4292,0.0459-0.60547c0.02441-0.17627,0.06543-0.34766,0.125-0.51367
			c0.05859-0.16602,0.13574-0.30273,0.23047-0.40967c0.09375-0.10693,0.21777-0.19287,0.37109-0.25781
			c0.1543-0.06445,0.33301-0.09717,0.53809-0.09717c0.18652,0,0.35059,0.02441,0.49316,0.07324
			c0.1416,0.04932,0.26074,0.12305,0.35449,0.22217c0.09473,0.09863,0.17285,0.2085,0.23535,0.3291s0.11035,0.26709,0.1416,0.43848
			c0.03223,0.17188,0.05469,0.34082,0.06738,0.50684c0.01172,0.16602,0.01855,0.35742,0.01855,0.57324v0.10254h-1.74707v0.21826
			c0,0.02979,0,0.07617,0,0.14014c-0.00488,0.08398-0.00586,0.17139-0.00195,0.26123
			c0.00293,0.08984,0.00684,0.17773,0.01172,0.26416s0.01758,0.16895,0.03711,0.24756
			c0.02051,0.07861,0.0459,0.14746,0.0752,0.20654c0.03027,0.05908,0.07129,0.10547,0.125,0.13965s0.11621,0.05127,0.18945,0.05127
			c0.09082,0,0.16602-0.01758,0.22559-0.05273c0.05859-0.03516,0.10254-0.08838,0.13086-0.15869
			c0.02832-0.0708,0.04883-0.14111,0.05957-0.21191c0.01172-0.07031,0.01855-0.15918,0.02051-0.26611v-0.18408h0.86719v0.17383
			c-0.02051,0.4668-0.13574,0.81934-0.34473,1.05811C78.79443,14.81592,78.47314,14.93555,78.03857,14.93555z M77.60889,12.25293
			h0.86621v-0.2627c-0.00195-0.11572-0.00879-0.21729-0.02051-0.30371c-0.01074-0.08643-0.03125-0.17285-0.05957-0.25928
			s-0.07227-0.15234-0.13086-0.19775c-0.05957-0.04541-0.13281-0.06836-0.21875-0.06836c-0.08887,0-0.16309,0.02393-0.22363,0.07178
			s-0.10449,0.11621-0.13281,0.20654c-0.02832,0.08984-0.04883,0.17773-0.05957,0.26416
			c-0.01172,0.08643-0.01855,0.18994-0.02051,0.31055V12.25293z"/>
		<path class="st12" d="M79.98779,14.87402v-4.36816h0.87305v0.5835c0.08887-0.17285,0.21875-0.32373,0.3877-0.45215
			c0.16992-0.12842,0.35742-0.19287,0.56445-0.19287c0.00684,0,0.05371,0.00488,0.14063,0.01367v0.96582
			c-0.16211-0.06348-0.32324-0.0957-0.48535-0.0957c-0.18164,0-0.32813,0.05469-0.43945,0.16406
			c-0.11133,0.10889-0.16797,0.25342-0.16797,0.43311v2.94873H79.98779z"/>
		<path class="st12" d="M83.80908,14.87402V8.75879h1.31055c0.28223,0,0.53516,0.0293,0.75781,0.08838
			c0.22266,0.05957,0.41797,0.14941,0.58496,0.26953c0.16797,0.12061,0.2959,0.28027,0.38574,0.47803
			s0.13477,0.42871,0.13477,0.69287c0,0.38184-0.08105,0.67285-0.24219,0.87158c-0.16113,0.19922-0.41016,0.34521-0.74707,0.43848
			c0.36426,0.12109,0.63672,0.29785,0.81836,0.53076c0.18262,0.2334,0.27344,0.56592,0.27344,0.99854
			c0,0.53906-0.15625,0.96484-0.46875,1.27783c-0.31348,0.31299-0.73926,0.46924-1.27832,0.46924H83.80908z M84.68311,11.37939
			h0.43652c0.72852,0,1.0918-0.36377,1.0918-1.0918c0-0.12061-0.01465-0.22705-0.04395-0.31934
			c-0.0293-0.0918-0.06445-0.16895-0.10547-0.23047C86.021,9.67676,85.9585,9.625,85.87549,9.58252
			c-0.08301-0.04199-0.1582-0.07422-0.22656-0.09717c-0.06836-0.02246-0.16602-0.03906-0.29199-0.04932
			s-0.23145-0.0166-0.31543-0.01904c-0.08398-0.00195-0.2041-0.00342-0.3584-0.00342V11.37939z M84.68311,14.21875h0.43652
			c0.37793,0,0.6543-0.08691,0.8291-0.26123c0.17578-0.17383,0.2627-0.45068,0.2627-0.83057s-0.08691-0.65723-0.2627-0.83105
			c-0.1748-0.17432-0.45117-0.26123-0.8291-0.26123h-0.43652V14.21875z"/>
		<path class="st12" d="M88.44385,14.93555c-0.24316,0-0.4502-0.10547-0.61914-0.31592
			c-0.16992-0.21045-0.25391-0.44727-0.25391-0.71143c0-0.21143,0.03516-0.40381,0.10742-0.57666
			c0.07129-0.17285,0.14648-0.31104,0.22656-0.41455s0.21289-0.21045,0.39941-0.3208s0.32715-0.18604,0.42285-0.22705
			s0.26172-0.10791,0.49805-0.20117c0.04102-0.01611,0.07227-0.02881,0.09277-0.0376v-0.31396
			c0-0.2207-0.03125-0.39209-0.09277-0.51367s-0.17578-0.18262-0.34473-0.18262c-0.14941,0-0.25684,0.05176-0.32227,0.15527
			c-0.06445,0.10352-0.10156,0.24609-0.11035,0.42822c-0.00293,0.0249-0.00391,0.0625-0.00391,0.11279H87.5708
			c0.00391-0.41846,0.12109-0.75195,0.35059-1c0.23047-0.24805,0.5498-0.37207,0.95898-0.37207
			c0.40723,0,0.72754,0.12598,0.96094,0.37695c0.2334,0.25146,0.34961,0.5835,0.34961,0.99512v1.96533
			c0,0.45508,0.03809,0.81934,0.11328,1.09229h-0.87012l-0.11621-0.65527c-0.0459,0.09131-0.08301,0.16162-0.11133,0.21143
			c-0.02832,0.05029-0.06934,0.1123-0.12402,0.18604c-0.05469,0.07422-0.10938,0.13086-0.16406,0.1709
			c-0.05469,0.03955-0.12305,0.07422-0.20508,0.104C88.63135,14.92041,88.5415,14.93555,88.44385,14.93555z M88.88037,14.21875
			c0.06152,0,0.12109-0.01807,0.17969-0.05469c0.05762-0.03613,0.10156-0.07129,0.13086-0.10547
			c0.03027-0.03418,0.06641-0.07959,0.10938-0.13672c0.00684-0.01123,0.0127-0.01904,0.01758-0.02393v-1.20801
			c-0.03711,0.0249-0.09668,0.06348-0.18066,0.11621c-0.08496,0.05225-0.15137,0.09473-0.20215,0.12793
			c-0.0498,0.03271-0.11035,0.07813-0.18066,0.13623s-0.125,0.11377-0.16406,0.16748
			c-0.03809,0.05322-0.07227,0.11865-0.10156,0.19629c-0.03027,0.07715-0.04492,0.1582-0.04492,0.24219
			C88.44385,14.03809,88.58936,14.21875,88.88037,14.21875z"/>
		<path class="st12" d="M90.94189,14.87402v-4.36816h0.87305v0.5835c0.08887-0.17285,0.21875-0.32373,0.3877-0.45215
			c0.16992-0.12842,0.35742-0.19287,0.56445-0.19287c0.00684,0,0.05371,0.00488,0.14063,0.01367v0.96582
			c-0.16211-0.06348-0.32324-0.0957-0.48535-0.0957c-0.18164,0-0.32813,0.05469-0.43945,0.16406
			c-0.11133,0.10889-0.16797,0.25342-0.16797,0.43311v2.94873H90.94189z"/>
		<path class="st12" d="M95.93799,14.93555c-0.34277,0-0.59277-0.08789-0.74902-0.2627
			c-0.15527-0.17529-0.23535-0.44043-0.24023-0.79541v-2.71631h-0.43652v-0.65527h0.43652V8.97705h0.87402v1.52881h0.65527v0.65527
			h-0.65527v2.54932c0,0.17529,0.02344,0.30371,0.07129,0.38525c0.04785,0.08203,0.14453,0.12305,0.29004,0.12305
			c0.06348,0,0.16113-0.01123,0.29395-0.03418v0.70996C96.25928,14.92188,96.07959,14.93555,95.93799,14.93555z"/>
		<path class="st12" d="M99.35107,14.52588c-0.20313,0.27295-0.53809,0.40967-1.00684,0.40967s-0.80469-0.13672-1.00684-0.40967
			s-0.30371-0.6665-0.30371-1.18066v-1.31055c0-0.51416,0.10156-0.90771,0.30371-1.18066s0.53809-0.40967,1.00684-0.40967
			s0.80371,0.13672,1.00684,0.40967c0.20215,0.27295,0.30371,0.6665,0.30371,1.18066v1.31055
			C99.65479,13.85938,99.55322,14.25293,99.35107,14.52588z M98.18213,14.19141c0.04688,0.01855,0.10059,0.02734,0.16211,0.02734
			s0.11523-0.00879,0.16211-0.02734c0.04688-0.01807,0.08496-0.04004,0.11621-0.06641
			c0.03027-0.02637,0.05566-0.06494,0.07617-0.11621s0.03711-0.09619,0.04785-0.13477
			c0.01172-0.03857,0.01953-0.09424,0.02441-0.16699c0.00391-0.07275,0.00684-0.13037,0.00781-0.17236
			c0.00195-0.04199,0.00195-0.10547,0.00195-0.18945v-1.31055c0-0.08398,0-0.14746-0.00195-0.18945
			c-0.00098-0.04199-0.00391-0.09961-0.00781-0.17236c-0.00488-0.07275-0.0127-0.12842-0.02441-0.16699
			c-0.01074-0.03857-0.02734-0.0835-0.04785-0.13477s-0.0459-0.08984-0.07617-0.11621
			c-0.03125-0.02588-0.06934-0.04834-0.11621-0.06641s-0.10059-0.02734-0.16211-0.02734s-0.11523,0.00928-0.16211,0.02734
			s-0.08496,0.04053-0.11621,0.06641c-0.03027,0.02637-0.05664,0.06494-0.07715,0.11621s-0.03613,0.09619-0.04688,0.13477
			c-0.01172,0.03857-0.01953,0.09424-0.02441,0.16699s-0.00781,0.13037-0.00879,0.17236s-0.00098,0.10547-0.00098,0.18945v1.31055
			c0,0.08398,0,0.14746,0.00098,0.18945s0.00391,0.09961,0.00879,0.17236s0.0127,0.12842,0.02441,0.16699
			c0.01074,0.03857,0.02637,0.0835,0.04688,0.13477s0.04688,0.08984,0.07715,0.11621
			C98.09717,14.15137,98.13525,14.17334,98.18213,14.19141z"/>
		<path class="st12" d="M100.40869,12.03467v-0.87354h0.87402v0.87354H100.40869z M100.40869,14.00049v-0.87354h0.87402v0.87354
			H100.40869z"/>
	</g>
	<g>
		<g>
			<path class="st11" d="M4.39697,30.06836c-0.44141,0-0.83008-0.0625-1.16602-0.1875s-0.61133-0.29785-0.82617-0.51855
				s-0.38965-0.49609-0.52441-0.82617s-0.22949-0.68262-0.28418-1.05762s-0.08203-0.79883-0.08203-1.27148v-2.99414
				c0-0.47266,0.02734-0.89648,0.08203-1.27148s0.14941-0.72754,0.28418-1.05762s0.30957-0.60449,0.52441-0.82324
				s0.49023-0.39063,0.82617-0.51563s0.72461-0.1875,1.16602-0.1875c0.48828,0,0.91016,0.07227,1.26563,0.2168
				s0.63965,0.35742,0.85254,0.63867s0.37305,0.60742,0.48047,0.97852s0.1709,0.80469,0.19043,1.30078
				c0.00391,0.07422,0.00586,0.18945,0.00586,0.3457h-1.5v-0.33398c-0.00391-0.20703-0.01172-0.38379-0.02344-0.53027
				s-0.0332-0.29785-0.06445-0.4541s-0.07715-0.28613-0.1377-0.38965s-0.13672-0.19922-0.22852-0.28711
				s-0.20801-0.15234-0.34863-0.19336s-0.30469-0.06152-0.49219-0.06152c-0.24219,0-0.4502,0.03906-0.62402,0.11719
				s-0.30957,0.17871-0.40723,0.30176s-0.17285,0.28809-0.22559,0.49512S3.05322,21.91113,3.0376,22.1084
				s-0.02344,0.44043-0.02344,0.72949v3.75c0,0.25,0.01074,0.47656,0.03223,0.67969s0.06348,0.40527,0.12598,0.60645
				s0.14355,0.37012,0.24316,0.50684s0.23242,0.24707,0.39844,0.33105s0.36035,0.12598,0.58301,0.12598
				s0.41406-0.04297,0.57422-0.12891s0.28613-0.19531,0.37793-0.32813s0.16406-0.30273,0.2168-0.50977
				s0.08691-0.4082,0.10254-0.60352s0.02344-0.42188,0.02344-0.67969v-0.375h1.5v0.375c0,0.54297-0.04785,1.01953-0.14355,1.42969
				s-0.25,0.77246-0.46289,1.08691S6.0835,29.6582,5.71826,29.82227S4.9126,30.06836,4.39697,30.06836z"/>
			<path class="st11" d="M10.89502,30.06836c-0.52734,0-0.97949-0.08008-1.35645-0.24023S8.86182,29.43359,8.63916,29.125
				s-0.38477-0.6709-0.48633-1.08691s-0.15234-0.89941-0.15234-1.4502V22.7793c0-0.55078,0.05078-1.03125,0.15234-1.44141
				s0.26367-0.7666,0.48633-1.06934s0.52246-0.53027,0.89941-0.68262s0.8291-0.22852,1.35645-0.22852
				c1.02344,0,1.76172,0.29297,2.21484,0.87891s0.67969,1.43359,0.67969,2.54297v3.80859c0,0.54297-0.05176,1.02246-0.15527,1.43848
				s-0.2666,0.7793-0.48926,1.08984s-0.52246,0.54688-0.89941,0.70898S11.41846,30.06836,10.89502,30.06836z M9.80225,28.36328
				c0.20117,0.31641,0.56543,0.47461,1.09277,0.47461s0.8916-0.1582,1.09277-0.47461s0.30176-0.7832,0.30176-1.40039V22.4043
				c0-0.60938-0.09961-1.06445-0.29883-1.36523s-0.56445-0.45117-1.0957-0.45117s-0.89648,0.15039-1.0957,0.45117
				s-0.29883,0.75586-0.29883,1.36523v4.55859C9.50049,27.58008,9.60107,28.04688,9.80225,28.36328z"/>
			<path class="st11" d="M15.10205,29.96289v-10.5h2.07422l1.48828,8.03906l1.48828-8.03906h2.07422v10.5h-1.5v-8.28516
				l-1.5,8.28516h-1.125l-1.5-8.28516v8.28516H15.10205z"/>
			<path class="st11" d="M23.72705,29.96289v-10.5h2.625c1.75,0,2.625,1,2.625,3c0,0.85547-0.22559,1.50684-0.67676,1.9541
				s-1.10059,0.6709-1.94824,0.6709h-1.125v4.875H23.72705z M25.22705,23.96289h0.375c0.33984,0,0.61816-0.01953,0.83496-0.05859
				s0.4082-0.1123,0.57422-0.21973s0.28516-0.26074,0.35742-0.45996s0.1084-0.45313,0.1084-0.76172
				c0-0.375-0.02734-0.67871-0.08203-0.91113s-0.15527-0.42285-0.30176-0.57129s-0.33594-0.25098-0.56836-0.30762
				s-0.54004-0.08496-0.92285-0.08496h-0.375V23.96289z"/>
			<path class="st11" d="M29.17041,29.96289l2.25-10.5h1.5l2.25,10.5h-1.5l-0.5625-2.625h-1.875l-0.5625,2.625H29.17041z
				 M31.42041,26.21289h1.5l-0.75-4.5L31.42041,26.21289z"/>
			<path class="st11" d="M36.01416,29.96289v-10.5h1.875c1.11719,0,1.95898,0.2168,2.52539,0.65039s0.84961,1.1543,0.84961,2.16211
				c0,0.625-0.11133,1.14844-0.33398,1.57031s-0.54883,0.71094-0.97852,0.86719l1.6875,5.25h-1.48828l-1.51172-4.875h-1.125v4.875
				H36.01416z M37.51416,23.96289h0.375c0.625,0,1.09375-0.13184,1.40625-0.39551s0.46875-0.69434,0.46875-1.29199
				s-0.15625-1.02832-0.46875-1.29199s-0.78125-0.39551-1.40625-0.39551h-0.375V23.96289z"/>
			<path class="st11" d="M42.50635,29.96289v-10.5h4.125v1.125h-2.625v3.375h1.875v1.125h-1.875v3.75h2.625v1.125H42.50635z"/>
			<path class="st11" d="M49.98877,29.96289v-10.5h2.07422l1.48828,8.03906l1.48828-8.03906h2.07422v10.5h-1.5v-8.28516
				l-1.5,8.28516h-1.125l-1.5-8.28516v8.28516H49.98877z"/>
			<path class="st11" d="M57.95752,29.96289l2.25-10.5h1.5l2.25,10.5h-1.5l-0.5625-2.625h-1.875l-0.5625,2.625H57.95752z
				 M60.20752,26.21289h1.5l-0.75-4.5L60.20752,26.21289z"/>
			<path class="st11" d="M65.92041,29.96289v-9.16406h-1.875v-1.33594h5.25v1.33594h-1.875v9.16406H65.92041z"/>
			<path class="st11" d="M70.03955,29.96289v-10.5h4.125v1.125h-2.625v3.375h1.875v1.125h-1.875v3.75h2.625v1.125H70.03955z"/>
			<path class="st11" d="M75.08447,29.96289v-10.5h1.875c1.11719,0,1.95898,0.2168,2.52539,0.65039s0.84961,1.1543,0.84961,2.16211
				c0,0.625-0.11133,1.14844-0.33398,1.57031s-0.54883,0.71094-0.97852,0.86719l1.6875,5.25h-1.48828l-1.51172-4.875h-1.125v4.875
				H75.08447z M76.58447,23.96289h0.375c0.625,0,1.09375-0.13184,1.40625-0.39551s0.46875-0.69434,0.46875-1.29199
				s-0.15625-1.02832-0.46875-1.29199s-0.78125-0.39551-1.40625-0.39551h-0.375V23.96289z"/>
			<path class="st11" d="M81.64697,29.96289v-10.5h1.5v10.5H81.64697z"/>
			<path class="st11" d="M84.09619,29.96289l2.25-10.5h1.5l2.25,10.5h-1.5l-0.5625-2.625h-1.875l-0.5625,2.625H84.09619z
				 M86.34619,26.21289h1.5l-0.75-4.5L86.34619,26.21289z"/>
			<path class="st11" d="M90.93994,29.96289v-10.5h1.5v9.375h2.625v1.125H90.93994z"/>
			<path class="st11" d="M98.49854,30.06836c-0.94531,0-1.66699-0.27734-2.16504-0.83203s-0.77637-1.3125-0.83496-2.27344l1.5-0.375
				c0.07422,1.5,0.57422,2.25,1.5,2.25c0.75,0,1.125-0.375,1.125-1.125c0-0.22266-0.03027-0.42871-0.09082-0.61816
				s-0.15332-0.36328-0.27832-0.52148s-0.23828-0.28516-0.33984-0.38086s-0.24023-0.21387-0.41602-0.35449l-1.875-1.5
				c-0.34375-0.26953-0.61816-0.6123-0.82324-1.02832s-0.30762-0.88965-0.30762-1.4209c0-0.77344,0.24023-1.38867,0.7207-1.8457
				s1.11719-0.68555,1.91016-0.68555c0.85156,0,1.52832,0.20801,2.03027,0.62402s0.81152,1.00488,0.92871,1.7666
				c0.01172,0.08203,0.02539,0.19531,0.04102,0.33984l-1.5,0.375c-0.00391-0.06641-0.01367-0.16602-0.0293-0.29883
				c-0.06641-0.47656-0.21582-0.8584-0.44824-1.14551s-0.57324-0.43066-1.02246-0.43066c-0.35938,0-0.63672,0.10059-0.83203,0.30176
				s-0.29297,0.48145-0.29297,0.84082c0,0.58984,0.25,1.08398,0.75,1.48242l1.875,1.5c1,0.80859,1.5,1.77539,1.5,2.90039
				c0,0.76953-0.2373,1.37109-0.71191,1.80469S99.29932,30.06836,98.49854,30.06836z"/>
		</g>
	</g>
</g>
</svg>
